<svg viewBox="0 0 800 1000" xmlns="http://www.w3.org/2000/svg">
  <!-- Header -->
  <rect x="0" y="0" width="800" height="400" fill="#EEEEEE"/>
  <text x="400" y="80" text-anchor="middle" font-size="24" fill="#333333">Hero Image</text>
  <rect x="250" y="200" width="300" height="50" fill="#FFFFFF" stroke="#666666"/>
  <text x="400" y="230" text-anchor="middle" font-size="20" fill="#333333">LOGO</text>

  <!-- Navigation -->
  <rect x="0" y="400" width="800" height="60" fill="#F5F5F5"/>
  <line x1="200" y1="400" x2="200" y2="460" stroke="#CCCCCC"/>
  <line x1="400" y1="400" x2="400" y2="460" stroke="#CCCCCC"/>
  <line x1="600" y1="400" x2="600" y2="460" stroke="#CCCCCC"/>
  <text x="100" y="435" text-anchor="middle" fill="#666666">Home</text>
  <text x="300" y="435" text-anchor="middle" fill="#666666">Trips</text>
  <text x="500" y="435" text-anchor="middle" fill="#666666">About</text>
  <text x="700" y="435" text-anchor="middle" fill="#666666">Contact</text>

  <!-- Main Content -->
  <text x="400" y="500" text-anchor="middle" font-size="24" fill="#333333">Camping Trip</text>
  
  <!-- Description Box -->
  <rect x="100" y="520" width="600" height="120" fill="#FFFFFF" stroke="#CCCCCC"/>
  <text x="400" y="570" text-anchor="middle" font-size="14" fill="#666666">Description text block</text>
  
  <!-- Available Trips Section -->
  <text x="400" y="680" text-anchor="middle" font-size="20" fill="#333333">Available Trips</text>
  
  <!-- Table -->
  <rect x="100" y="700" width="600" height="30" fill="#F5F5F5" stroke="#CCCCCC"/>
  <rect x="100" y="730" width="600" height="90" fill="#FFFFFF" stroke="#CCCCCC"/>
  
  <!-- Table Headers -->
  <line x1="250" y1="700" x2="250" y2="820" stroke="#CCCCCC"/>
  <line x1="400" y1="700" x2="400" y2="820" stroke="#CCCCCC"/>
  <line x1="550" y1="700" x2="550" y2="820" stroke="#CCCCCC"/>
  <text x="175" y="720" text-anchor="middle" font-size="14" fill="#333333">Trip Name</text>
  <text x="325" y="720" text-anchor="middle" font-size="14" fill="#333333">Duration</text>
  <text x="475" y="720" text-anchor="middle" font-size="14" fill="#333333">Difficulty</text>
  <text x="625" y="720" text-anchor="middle" font-size="14" fill="#333333">Price</text>

  <!-- Footer -->
  <rect x="0" y="900" width="800" height="100" fill="#333333"/>
  <!-- Social Media Icons -->
  <circle cx="350" cy="950" r="15" fill="#FFFFFF"/>
  <circle cx="400" cy="950" r="15" fill="#FFFFFF"/>
  <circle cx="450" cy="950" r="15" fill="#FFFFFF"/>
  <text x="400" y="980" text-anchor="middle" font-size="12" fill="#FFFFFF">© 2024 Nile Rafting | Phillip</text>
</svg>
